<?xml version="1.0" encoding="utf-8"?>
<!-- Generator: Adobe Illustrator 22.0.1, SVG Export Plug-In . SVG Version: 6.00 Build 0)  -->
<svg version="1.1" id="Livello_1" xmlns="http://www.w3.org/2000/svg" xmlns:xlink="http://www.w3.org/1999/xlink" x="0px" y="0px"
	 viewBox="0 0 40 40" style="enable-background:new 0 0 40 40;" xml:space="preserve">
<style type="text/css">
	.st0{fill:#FFFF00;}
</style>
<g>
	<g>
		<path class="st0" d="M16.2,21.5c-0.1,0-0.2,0-0.3,0c-1.8,0-3.7,0-5.5,0c-0.3,0-0.3,0-0.3-0.3c0-2.1,0-4.3,0-6.4
			c0-0.3,0-0.3,0.3-0.3c1.8,0,3.7,0,5.5,0c0.1,0,0.2,0,0.3,0c0-0.1,0-0.2,0-0.3c0-1.9,0-3.7,0-5.6c0.1-1.8,0.5-3.4,1.5-4.9
			c1.3-1.9,3-2.9,5.2-3.4C24.1,0,25.4,0,26.6,0c1.2,0,2.5,0.1,3.7,0.2c0.3,0,0.3,0,0.3,0.4c0,1.9,0,3.8,0,5.7c0,0.2-0.1,0.3-0.3,0.3
			c-1.3,0-2.7,0-4,0c-0.3,0-0.6,0.1-1,0.1c-1.1,0.3-1.7,1-1.9,2.1c-0.1,0.3-0.1,0.7-0.1,1c0,1.5,0,3,0,4.4c0,0.1,0,0.1,0,0.2
			c2.3,0,4.6,0,6.9,0c0,0.1,0,0.2,0,0.3c-0.2,1.9-0.5,3.9-0.7,5.8c0,0.2-0.1,0.5-0.1,0.7c0,0.2-0.1,0.2-0.3,0.2c-1.1,0-2.3,0-3.4,0
			c-0.7,0-1.4,0-2.1,0c-0.1,0-0.2,0-0.3,0c0,0.1,0,0.2,0,0.3c0,5.8,0,11.6,0,17.4c0,0.4,0,0.4-0.4,0.4c-2.2,0-4.4,0-6.6,0
			c-0.4,0-0.4,0-0.4-0.4c0-5.8,0-11.6,0-17.3C16.2,21.8,16.2,21.7,16.2,21.5z"/>
	</g>
</g>
</svg>
