<?xml version="1.0" encoding="utf-8"?>
<!-- Generator: Adobe Illustrator 22.0.1, SVG Export Plug-In . SVG Version: 6.00 Build 0)  -->
<svg version="1.1" xmlns="http://www.w3.org/2000/svg" xmlns:xlink="http://www.w3.org/1999/xlink" x="0px" y="0px"
	 viewBox="0 0 40 40" style="enable-background:new 0 0 40 40;" xml:space="preserve">
<style type="text/css">
	.st0{display:none;}
	.st1{display:inline;}
	.st2{fill:#FFFF00;}
</style>
<g id="Livello_1" class="st0">
	<g class="st1">
		<g>
			<path class="st2" d="M16.2,21.5c-0.1,0-0.2,0-0.3,0c-1.8,0-3.7,0-5.5,0c-0.3,0-0.3,0-0.3-0.3c0-2.1,0-4.3,0-6.4
				c0-0.3,0-0.3,0.3-0.3c1.8,0,3.7,0,5.5,0c0.1,0,0.2,0,0.3,0c0-0.1,0-0.2,0-0.3c0-1.9,0-3.7,0-5.6c0.1-1.8,0.5-3.4,1.5-4.9
				c1.3-1.9,3-2.9,5.2-3.4C24.1,0,25.4,0,26.6,0c1.2,0,2.5,0.1,3.7,0.2c0.3,0,0.3,0,0.3,0.4c0,1.9,0,3.8,0,5.7
				c0,0.2-0.1,0.3-0.3,0.3c-1.3,0-2.7,0-4,0c-0.3,0-0.6,0.1-1,0.1c-1.1,0.3-1.7,1-1.9,2.1c-0.1,0.3-0.1,0.7-0.1,1c0,1.5,0,3,0,4.4
				c0,0.1,0,0.1,0,0.2c2.3,0,4.6,0,6.9,0c0,0.1,0,0.2,0,0.3c-0.2,1.9-0.5,3.9-0.7,5.8c0,0.2-0.1,0.5-0.1,0.7c0,0.2-0.1,0.2-0.3,0.2
				c-1.1,0-2.3,0-3.4,0c-0.7,0-1.4,0-2.1,0c-0.1,0-0.2,0-0.3,0c0,0.1,0,0.2,0,0.3c0,5.8,0,11.6,0,17.4c0,0.4,0,0.4-0.4,0.4
				c-2.2,0-4.4,0-6.6,0c-0.4,0-0.4,0-0.4-0.4c0-5.8,0-11.6,0-17.3C16.2,21.8,16.2,21.7,16.2,21.5z"/>
		</g>
	</g>
</g>
<g id="Livello_2">
	<g>
		<g>
			<path class="st2" d="M40,19.7c0,2.4,0,4.7-0.1,7.1c0,1.9-0.2,3.8-0.9,5.6c-1.4,3.5-3.9,5.6-7.6,6.4c-1.3,0.3-2.6,0.4-3.9,0.4
				c-4.2,0.1-8.3,0.1-12.5,0.1c-1.5,0-3-0.1-4.5-0.3c-2.2-0.2-4.3-1-6-2.5c-1.7-1.4-2.7-3.3-3.3-5.4c-0.4-1.7-0.5-3.4-0.5-5.2
				c0-3.9-0.1-7.8,0-11.6c0-1.8,0-3.7,0.4-5.5C2,4.4,5.2,1.2,9.8,0.5c1.2-0.2,2.3-0.3,3.5-0.3c4.1-0.1,8.1-0.1,12.2-0.1
				c1.7,0,3.3,0.1,5,0.3c3.2,0.4,5.8,1.9,7.6,4.7c1,1.5,1.5,3.1,1.6,4.8c0.2,2.2,0.2,4.5,0.3,6.7C40,17.6,40,18.7,40,19.7
				C40,19.7,40,19.7,40,19.7z M4.4,19.4C4.3,19.4,4.3,19.4,4.4,19.4c-0.1,2.5-0.1,5.1,0,7.6c0,0.9,0.1,1.9,0.3,2.8
				c0.5,3.1,2.5,5.2,5.7,5.7c1.4,0.2,2.7,0.3,4.1,0.3c2.3,0.1,4.5,0,6.8,0c2.2,0,4.3,0,6.5-0.1c0.8,0,1.5-0.1,2.3-0.2
				c1.2-0.2,2.3-0.5,3.2-1.2c1.6-1.1,2.5-2.6,2.8-4.5c0.2-1.4,0.3-2.8,0.3-4.3c0.1-2.6,0.1-5.2,0-7.8c0-2.4-0.1-4.8-0.2-7.1
				c-0.1-1.3-0.5-2.6-1.3-3.8c-1.1-1.6-2.7-2.5-4.5-2.7c-1.5-0.2-3.1-0.3-4.7-0.3c-4.2,0-8.3,0-12.5,0.1c-0.9,0-1.8,0.1-2.7,0.3
				C7.3,4.6,5.3,6.4,4.7,9.5c-0.2,1.1-0.3,2.3-0.3,3.4C4.3,15.1,4.4,17.2,4.4,19.4z"/>
			<path class="st2" d="M30.4,19.8c0,5.6-4.6,10.1-10.2,10.1c-5.6,0-10-4.6-10-10.3c0.1-5.5,4.6-10,10.2-9.9
				C26,9.7,30.5,14.2,30.4,19.8z M20.3,26.2c3.6,0,6.5-2.9,6.5-6.6c0-3.5-2.9-6.4-6.5-6.4c-3.6,0-6.5,2.9-6.5,6.5
				C13.8,23.3,16.8,26.2,20.3,26.2z"/>
			<path class="st2" d="M33.2,9.3c0,1.3-1.1,2.4-2.4,2.4c-1.3,0-2.4-1.1-2.4-2.4c0-1.3,1.1-2.4,2.4-2.4C32.1,6.9,33.2,7.9,33.2,9.3z
				"/>
		</g>
	</g>
</g>
</svg>
