<?xml version="1.0" encoding="utf-8"?>
<!-- Generator: Adobe Illustrator 22.0.1, SVG Export Plug-In . SVG Version: 6.00 Build 0)  -->
<svg version="1.1" xmlns="http://www.w3.org/2000/svg" xmlns:xlink="http://www.w3.org/1999/xlink" x="0px" y="0px"
	 viewBox="0 0 40 40" style="enable-background:new 0 0 40 40;" xml:space="preserve">
<style type="text/css">
	.st0{display:none;}
	.st1{display:inline;}
	.st2{fill:#FFFF00;}
	.st3{fill:#FFFFFF;}
</style>
<g id="Livello_1" class="st0">
	<g class="st1">
		<g>
			<path class="st2" d="M16.2,21.5c-0.1,0-0.2,0-0.3,0c-1.8,0-3.7,0-5.5,0c-0.3,0-0.3,0-0.3-0.3c0-2.1,0-4.3,0-6.4
				c0-0.3,0-0.3,0.3-0.3c1.8,0,3.7,0,5.5,0c0.1,0,0.2,0,0.3,0c0-0.1,0-0.2,0-0.3c0-1.9,0-3.7,0-5.6c0.1-1.8,0.5-3.4,1.5-4.9
				c1.3-1.9,3-2.9,5.2-3.4C24.1,0,25.4,0,26.6,0c1.2,0,2.5,0.1,3.7,0.2c0.3,0,0.3,0,0.3,0.4c0,1.9,0,3.8,0,5.7
				c0,0.2-0.1,0.3-0.3,0.3c-1.3,0-2.7,0-4,0c-0.3,0-0.6,0.1-1,0.1c-1.1,0.3-1.7,1-1.9,2.1c-0.1,0.3-0.1,0.7-0.1,1c0,1.5,0,3,0,4.4
				c0,0.1,0,0.1,0,0.2c2.3,0,4.6,0,6.9,0c0,0.1,0,0.2,0,0.3c-0.2,1.9-0.5,3.9-0.7,5.8c0,0.2-0.1,0.5-0.1,0.7c0,0.2-0.1,0.2-0.3,0.2
				c-1.1,0-2.3,0-3.4,0c-0.7,0-1.4,0-2.1,0c-0.1,0-0.2,0-0.3,0c0,0.1,0,0.2,0,0.3c0,5.8,0,11.6,0,17.4c0,0.4,0,0.4-0.4,0.4
				c-2.2,0-4.4,0-6.6,0c-0.4,0-0.4,0-0.4-0.4c0-5.8,0-11.6,0-17.3C16.2,21.8,16.2,21.7,16.2,21.5z"/>
		</g>
	</g>
</g>
<g id="Livello_2" class="st0">
	<g class="st1">
		<g>
			<path class="st2" d="M40,19.7c0,2.4,0,4.7-0.1,7.1c0,1.9-0.2,3.8-0.9,5.6c-1.4,3.5-3.9,5.6-7.6,6.4c-1.3,0.3-2.6,0.4-3.9,0.4
				c-4.2,0.1-8.3,0.1-12.5,0.1c-1.5,0-3-0.1-4.5-0.3c-2.2-0.2-4.3-1-6-2.5c-1.7-1.4-2.7-3.3-3.3-5.4c-0.4-1.7-0.5-3.4-0.5-5.2
				c0-3.9-0.1-7.8,0-11.6c0-1.8,0-3.7,0.4-5.5C2,4.4,5.2,1.2,9.8,0.5c1.2-0.2,2.3-0.3,3.5-0.3c4.1-0.1,8.1-0.1,12.2-0.1
				c1.7,0,3.3,0.1,5,0.3c3.2,0.4,5.8,1.9,7.6,4.7c1,1.5,1.5,3.1,1.6,4.8c0.2,2.2,0.2,4.5,0.3,6.7C40,17.6,40,18.7,40,19.7
				C40,19.7,40,19.7,40,19.7z M4.4,19.4C4.3,19.4,4.3,19.4,4.4,19.4c-0.1,2.5-0.1,5.1,0,7.6c0,0.9,0.1,1.9,0.3,2.8
				c0.5,3.1,2.5,5.2,5.7,5.7c1.4,0.2,2.7,0.3,4.1,0.3c2.3,0.1,4.5,0,6.8,0c2.2,0,4.3,0,6.5-0.1c0.8,0,1.5-0.1,2.3-0.2
				c1.2-0.2,2.3-0.5,3.2-1.2c1.6-1.1,2.5-2.6,2.8-4.5c0.2-1.4,0.3-2.8,0.3-4.3c0.1-2.6,0.1-5.2,0-7.8c0-2.4-0.1-4.8-0.2-7.1
				c-0.1-1.3-0.5-2.6-1.3-3.8c-1.1-1.6-2.7-2.5-4.5-2.7c-1.5-0.2-3.1-0.3-4.7-0.3c-4.2,0-8.3,0-12.5,0.1c-0.9,0-1.8,0.1-2.7,0.3
				C7.3,4.6,5.3,6.4,4.7,9.5c-0.2,1.1-0.3,2.3-0.3,3.4C4.3,15.1,4.4,17.2,4.4,19.4z"/>
			<path class="st2" d="M30.4,19.8c0,5.6-4.6,10.1-10.2,10.1c-5.6,0-10-4.6-10-10.3c0.1-5.5,4.6-10,10.2-9.9
				C26,9.7,30.5,14.2,30.4,19.8z M20.3,26.2c3.6,0,6.5-2.9,6.5-6.6c0-3.5-2.9-6.4-6.5-6.4c-3.6,0-6.5,2.9-6.5,6.5
				C13.8,23.3,16.8,26.2,20.3,26.2z"/>
			<path class="st2" d="M33.2,9.3c0,1.3-1.1,2.4-2.4,2.4c-1.3,0-2.4-1.1-2.4-2.4c0-1.3,1.1-2.4,2.4-2.4C32.1,6.9,33.2,7.9,33.2,9.3z
				"/>
		</g>
	</g>
</g>
<g id="Livello_3">
	<g>
		<g>
			<path class="st2" d="M14.5,40.1C14.5,40.1,14.5,40.1,14.5,40.1c-0.2-0.1-0.3-0.2-0.3-0.5c0-3,0-6,0-9c0-2.8,0-5.7,0-8.5
				c0-2.8,0-5.6,0-8.4c0-0.1,0-0.1,0-0.2c0-0.1,0.1-0.2,0.2-0.2c0.1,0,0.1,0,0.2,0c2,0,4,0,6,0c0.4,0,0.8,0,1.2,0
				c0.2,0,0.3,0.1,0.3,0.3c0,0.7,0,1.3,0,2c0,0.4,0,0.8,0,1.2c0,0,0,0.1,0,0.1c0.1,0,0.1-0.1,0.1-0.1c0.3-0.3,0.5-0.7,0.8-1
				c1.3-1.5,2.9-2.4,4.8-2.8c1-0.2,2-0.3,3-0.2c1.3,0,2.5,0.3,3.7,0.7c1.8,0.7,3.2,1.9,4.1,3.6c0.5,0.9,0.8,1.9,1,2.9
				c0.1,0.6,0.2,1.2,0.3,1.8c0,0.2,0,0.4,0,0.6c0,0.7,0.1,1.3,0.1,2c0,0.4,0,0.8,0,1.2c0,0.1,0,0.2,0,0.3c0,4.7,0,9.3,0,14
				c-0.1,0.1-0.2,0.1-0.3,0.1c-0.1,0-0.1,0-0.2,0c-2.3,0-4.5,0-6.8,0c-0.1,0-0.2,0-0.2,0c-0.2,0-0.3,0-0.5,0
				c-0.3-0.2-0.3-0.1-0.3-0.5c0-0.1,0-0.1,0-0.2c0-1.4,0-2.7,0-4.1c0-3.2,0-6.4,0-9.5c0-0.5,0-1-0.1-1.6c-0.1-0.7-0.3-1.4-0.6-2.1
				c-0.4-0.9-1.1-1.6-2.1-1.9c-0.4-0.1-0.7-0.2-1.1-0.2c-0.6,0-1.3,0-1.9,0.1c-0.9,0.2-1.6,0.7-2.2,1.4c-0.4,0.5-0.7,1.2-0.8,1.8
				c-0.2,0.9-0.3,1.8-0.3,2.6c0,0.4,0,0.8,0,1.2c0,4.1,0,8.1,0,12.2c0,0.1,0,0.2,0,0.3c0,0.1-0.1,0.2-0.2,0.2c-0.1,0-0.1,0-0.2,0
				c-2.2,0-4.4,0-6.6,0c-0.1,0-0.2,0-0.3,0C14.9,40.1,14.7,40.1,14.5,40.1z"/>
			<path class="st2" d="M1,40.1C0.7,40,0.7,40,0.7,39.6c0-8.6,0-17.2,0-25.8c0-0.1,0-0.2,0-0.2c0-0.1,0.1-0.2,0.2-0.2
				c0.1,0,0.1,0,0.2,0c2.5,0,5,0,7.5,0c0.1,0,0.1,0,0.2,0c0.2,0,0.2,0.1,0.3,0.2c0,0.1,0,0.2,0,0.2c0,7.6,0,15.1,0,22.7c0,1,0,2,0,3
				c0,0.1,0,0.1,0,0.2c0,0.2-0.1,0.3-0.2,0.3c0,0,0,0-0.1,0c-0.2,0-0.3,0-0.5,0c-0.1,0-0.1,0-0.2,0c-0.4,0-0.8,0-1.2,0
				c-1.7,0-3.5,0-5.2,0c-0.1,0-0.1,0-0.2,0C1.3,40.1,1.2,40.1,1,40.1z"/>
			<path class="st2" d="M0,4.8c0.1,0,0.1-0.1,0.1-0.2c0.1-1,0.4-1.8,1-2.6c0.8-1,1.8-1.6,3-1.8C5,0.2,5.9,0.2,6.7,0.6
				C8.3,1.3,9.2,2.4,9.6,4c0.1,0.4,0.1,0.9,0.1,1.3C9.6,6.7,9.1,7.8,8.1,8.7C7.4,9.3,6.6,9.7,5.8,9.8C5.3,9.9,4.9,9.9,4.4,9.9
				C3.5,9.8,2.7,9.5,2,8.9c-1-0.8-1.6-1.8-1.8-3c0-0.2,0-0.3,0-0.5c0-0.1,0-0.2-0.1-0.2C0,5.1,0,5,0,4.8z"/>
			<path class="st3" d="M32.5,40.1c0.1,0,0.2,0,0.2,0c2.3,0,4.5,0,6.8,0c0.1,0,0.1,0,0.2,0c0.1,0,0.2,0,0.3-0.1c0,0.1,0,0.1,0,0.2
				C37.5,40.1,35,40.1,32.5,40.1z"/>
			<path class="st3" d="M1.5,40.1c0.1,0,0.1,0,0.2,0c1.7,0,3.5,0,5.2,0c0.4,0,0.8,0,1.2,0c0.1,0,0.1,0,0.2,0
				C6,40.1,3.7,40.1,1.5,40.1z"/>
		</g>
	</g>
</g>
<g id="Livello_4" class="st0">
	<g class="st1">
		<g>
			<path class="st2" d="M0.3,15.4c0,0,0.1,0,0.1,0c4.1,0,8.2,0,12.4,0c1.6,0,3.2,0.4,4.5,1.3c1.4,1,2.2,2.4,2.4,4.1
				c0.1,0.9,0,1.8-0.1,2.6c-0.2,1.4-1.1,2.4-2.4,3.2c-0.1,0.1-0.3,0.1-0.4,0.3c0.4,0.2,0.7,0.3,1,0.5c1.9,1.1,2.7,2.9,2.8,5
				c0.1,3.1-1.2,5.4-4,6.9c-1,0.5-2.1,0.7-3.2,0.8c-0.7,0.1-1.5,0.1-2.2,0.1c-3.5,0-6.9,0-10.4,0c-0.2,0-0.3,0-0.5,0
				C0.3,31.9,0.3,23.6,0.3,15.4z M6,35.7c2.1,0,4.2,0.1,6.3,0c1.8-0.1,2.8-1.1,3-2.9c0.2-1.7-0.5-2.9-1.9-3.4
				c-0.3-0.1-0.7-0.2-1-0.2c-2,0-3.9-0.1-5.9-0.1c-0.2,0-0.3,0-0.5,0C6,31.4,6,33.6,6,35.7z M6,25.1c0.1,0,0.2,0,0.3,0
				c1.7,0,3.3,0,5,0c0.7,0,1.3-0.1,2-0.3c0.8-0.2,1.4-0.8,1.5-1.7c0.1-0.5,0.1-1,0-1.5c-0.1-0.9-0.7-1.4-1.6-1.6
				c-0.4-0.1-0.7-0.2-1.1-0.2c-2,0-4-0.1-6-0.1c0,0,0,0-0.1,0C6,21.5,6,23.3,6,25.1z"/>
			<path class="st2" d="M39.7,34.2c-0.1,1-0.6,1.8-1.2,2.5c-1.8,2.4-4.4,3.2-7.3,3.2c-2.5,0-4.7-0.8-6.6-2.6c-1.1-1-1.7-2.4-2-3.8
				c-0.5-2.5-0.5-5,0.5-7.4c1-2.5,2.9-4.1,5.6-4.7c2.4-0.6,4.8-0.4,7,0.8c1.8,0.9,2.9,2.4,3.6,4.2c0.6,1.7,0.6,3.5,0.6,5.3
				c-4.3,0-8.6,0-12.8,0c-0.3,1.9,1.2,3.9,3.1,4.3c0.8,0.2,1.5,0.2,2.3,0c1-0.2,1.7-0.7,2.2-1.6c0.1-0.3,0.3-0.3,0.6-0.3
				c1.3,0,2.6,0,3.9,0C39.5,34.2,39.6,34.2,39.7,34.2z M27.3,28.7c2.7,0,5.3,0,7.9,0C35,26.4,33.5,25,31.2,25
				C28.8,25,27.6,26.5,27.3,28.7z"/>
			<path class="st2" d="M26.2,18.9c0-0.8,0-1.6,0-2.4c3.3,0,6.6,0,9.9,0c0,0.8,0,1.6,0,2.4C32.8,18.9,29.5,18.9,26.2,18.9z"/>
		</g>
	</g>
</g>
</svg>
